# xmcd CD database file
#
# Track frame offsets:
#	150
#	18062
#	36740
#	53720
#	72980
#	87080
#	103632
#	117780
#	133722
#	148492
#	164175
#	181565
#
# Disc length: 2717 seconds
#
# Revision: 3
# Processed by: cddbd v1.5.2PL0 Copyright (c) Steve Scherf et al.
# Submitted via: CDex 1.70beta1
#
DISCID=a90a9b0c
DTITLE=Terri Clark - Fearless
DYEAR=2000
DGENRE=Country
TTITLE0=No Fear
TTITLE1=Sometimes Goodbye
TTITLE2=Take My Time
TTITLE3=Empty
TTITLE4=Getting There
TTITLE5=Easy From Now On
TTITLE6=A Little Gasoline
TTITLE7=Last Thing I Wanted
TTITLE8=To Tell You Everything
TTITLE9=The Real Thing
TTITLE10=Midnight's Gone
TTITLE11=Good Mother
EXTD=YEAR: 2000
EXTT0=
EXTT1=
EXTT2=
EXTT3=
EXTT4=
EXTT5=
EXTT6=
EXTT7=
EXTT8=
EXTT9=
EXTT10=
EXTT11=
PLAYORDER=
